<?xml version="1.0" encoding="UTF-8"?>
<svg id="Layer_2" data-name="Layer 2" xmlns="http://www.w3.org/2000/svg" viewBox="0 0 280.87 773.02">
  <defs>
    <style>
      .cls-1 {
        fill-rule: evenodd;
      }

      .cls-1, .cls-2 {
        fill: #fff;
      }
    </style>
  </defs>
  <g id="Layer_1-2" data-name="Layer 1">
    <polygon class="cls-2" points="229.44 88.33 173.19 88.33 173.19 49.27 173.19 10.78 130.07 10.78 130.07 49.27 130.07 88.33 73.83 88.33 52.52 88.33 52.52 131.47 73.83 131.47 130.07 131.47 130.07 330.28 130.07 368.77 173.19 295.22 173.19 330.28 173.19 131.47 229.44 131.47 250.75 131.47 250.75 88.33 229.44 88.33"/>
    <path class="cls-2" d="M249.33,136.41c-8.23-1.6-16.47-4.17-24.72-4.56-4.86-.26-22.47-.58-44.19-.9-2.54-.02-5.19-.07-7.83-.1-.02,2.57-.05,5.18-.07,7.83-.59,82.8-1.16,197.12-1.08,219.03.06,12.46,1.96,24.93,3.04,37.39.63,0,1.29-.02,1.9-.02,1.08-11.61,2.97-23.23,2.99-34.84.13-40.66.46-155.97.98-221.42,9.83.15,17.59.32,21.64.48,16.32.78,32.63,1.65,49.22-1.91-.82-.43-1.33-.87-1.9-.97Z"/>
    <path class="cls-2" d="M133.04,130.36c-2.82-.03-5.61-.05-8.36-.08-25.07-.27-46.63-.44-52.95-.39-6.25.07-12.51,1.96-18.75,3.03,0,.66,0,1.31,0,1.92,5.83,1.06,11.67,2.96,17.49,3,10.74.05,31.83.17,54.21.36,0,6.98-.04,13.98-.02,20.99-.05,3.47-.12,6.93-.16,10.37-.52,42.82-.63,85.62-1.62,128.39-.76,32.52-1.65,65.02,1.93,98.07.41-1.58.86-2.62.95-3.71,1.63-16.43,4.17-32.83,4.58-49.31.73-28.16,1.3-56.32,1.88-84.47,0,0,.59-20.16.62-27.78.3-15.14.3-53.41.22-92.47,0-2.64,0-5.28,0-7.92Z"/>
    <path class="cls-2" d="M79.1,88.79c14.14.7,28.27,1.28,42.41,1.87,0,0,1.34.07,3.2.17,2.4.12,5.64.29,8.19.39,0-3.06-.01-6.03-.04-8.94-.07-19.07-.15-35.02-.18-43.96-.06-12.45-1.96-24.94-3.03-37.39-.63,0-1.29.02-1.91.02-1.05,11.6-2.96,23.24-2.98,34.85-.06,15.41-.02,30.83-.04,46.24-7.68-.19-15.35-.36-23.01-.73-16.32-.75-32.62-1.65-49.19,1.94.79.43,1.31.87,1.86.97,8.23,1.63,16.48,4.14,24.73,4.58Z"/>
    <path class="cls-2" d="M231.98,91.12c6.25-.05,12.52-1.96,18.77-3.03-.01-.63-.01-1.28-.01-1.91-5.83-1.04-11.67-2.93-17.48-2.98-17.37-.1-34.71-.1-52.05-.07.58-27.55.76-55.13-2.26-83.12-.43,1.6-.86,2.62-.98,3.71-1.6,16.43-4.16,32.84-4.57,49.31-.12,4.68-.24,15.42-.4,30.08-.02,2.69-.05,5.5-.08,8.43,2.68,0,5.37-.02,8.11-.02,20.87-.1,42.35-.32,50.96-.39Z"/>
    <path class="cls-1" d="M176.93,607.58l-.12.08v-14.88h-9.43c.16,3.68.16,10.76-2,14.8l-.15.08v-14.88h-9.43c.17,3.68.17,10.76-2,14.8l-.12.08v-14.88h-9.44c.17,3.68.17,10.76-2.01,14.8l-.12.08v-14.88h-9.43c.17,3.68.16,10.76-2.01,14.8l-.12.08v-14.88h-9.43c.17,3.68.14,10.76-2.02,14.8l-.12.08v-14.88h-17.44c-5.73,0-10.37,4.7-10.37,10.54s4.64,10.51,10.37,10.51h94.89c5.72,0,10.36-4.72,10.36-10.51s-4.64-10.54-10.36-10.54h-17.51c.16,3.68.15,10.76-2.01,14.8Z"/>
    <path class="cls-1" d="M141.52,444.85c-2.92.36-5.73,1.06-8.41,2.06l1.11,77.28c1.88.61,3.79,1.09,5.78,1.41l1.51-80.74Z"/>
    <path class="cls-1" d="M129.95,448.21c-2.8,1.31-5.41,2.96-7.82,4.87l.45,64.83c1.73,1.35,3.56,2.57,5.51,3.6l1.85-73.31Z"/>
    <path class="cls-1" d="M168.14,450.98l1.41,67.76c1.76-1.29,3.44-2.71,5.02-4.28l1.27-56.84c-2.27-2.54-4.84-4.75-7.69-6.64Z"/>
    <path class="cls-1" d="M151.26,525.92l1.9-80.85c-2.16-.37-4.33-.61-6.58-.61-.92,0-1.84.09-2.78.14l2.27,81.58c.17,0,.35.02.51.02,1.57,0,3.12-.1,4.68-.28Z"/>
    <path class="cls-1" d="M180.55,506.69c3.73-6.22,5.93-13.54,5.93-21.35,0-8.48-2.52-16.33-6.85-22.87l.92,44.22Z"/>
    <path class="cls-1" d="M165.12,449.16c-2.79-1.5-5.77-2.64-8.9-3.42l1.17,78.88c2.09-.58,4.11-1.36,6.04-2.28l1.69-73.19Z"/>
    <path class="cls-1" d="M118.06,456.8c-7.04,7.39-11.38,17.45-11.38,28.55,0,10.21,3.69,19.53,9.73,26.68l1.65-55.22Z"/>
    <path class="cls-1" d="M104.15,379.99c-19.06,2.06-35.96,9.08-50.3,21.97-20.76,18.66-26.05,43.79-12.21,68.15,15.16,26.65,11.9,53.97-6.43,78.63-13.37,17.98-23.67,37.22-29.54,58.92-9.2,34.02-7.8,67.42,8.52,98.92,18.31,35.4,50.01,53,87.59,61.48,23.2,5.23,46.75,5.72,70.44,4.22,25.94-1.65,51.16-6.18,74.75-17.55,13.4-6.44,24.83-14.78,33.9-25.18,0,0-48.41,20.6-68.85,24.72-18.63,3.71-37.52,4.48-56.55,4.78-24.38.36-48.1-2.6-70.98-11.04-21.33-7.82-39.25-20.47-51.13-40.24-17.65-29.37-20.33-60.99-12.87-93.86,4.92-21.74,14.58-41.22,27.7-59.2,12.18-16.67,17.73-35.43,15.63-56.32-1.38-13.93-6.75-26.27-13.89-38-4.78-7.89-6.28-16.4-4.73-25.4,2.84-16.4,12.75-28.2,25.44-37.99,10.94-8.46,23.51-13.47,36.88-17.04-1.13,0-2.28-.1-3.39.03Z"/>
  </g>
</svg>